<svg xmlns="http://www.w3.org/2000/svg" version="1.0" preserveAspectRatio="xMidYMid meet" viewBox="271.9 583 807.72 189.76">
<metadata>
Created by potrace 1.10, written by Peter Selinger 2001-2011
</metadata>
<g transform="translate(0.000000,1350.000000) scale(0.100000,-0.100000)" fill="#000000" stroke="none">
<path d="M4193 7433 c-421 -407 -620 -607 -638 -642 -20 -39 -14 -68 21 -110 21 -26 33 -31 68 -31 43 0 44 1 352 308 170 169 318 319 328 335 10 15 27 27 38 27 19 0 36 26 24 37 -3 3 -26 5 -51 5 -28 -2 -45 2 -45 9 0 16 148 159 164 159 29 0 36 -24 22 -83 -10 -41 -11 -71 -4 -108 5 -28 7 -57 4 -65 -9 -23 -24 -16 -28 14 -2 19 -9 28 -25 30 -45 7 -48 -17 -51 -413 -4 -418 0 -504 29 -537 18 -22 19 -22 34 -4 26 33 42 13 49 -64 8 -88 -6 -148 -37 -159 -12 -5 -23 -5 -25 0 -2 4 -10 5 -18 2 -23 -8 -36 45 -31 125 3 48 0 72 -7 72 -6 0 -24 16 -39 35 -25 31 -33 35 -77 35 -42 0 -52 -4 -74 -31 -28 -32 -34 -76 -15 -110 16 -30 236 -241 275 -263 32 -19 35 -19 71 -2 77 34 73 -14 73 835 l0 756 -31 38 c-26 31 -36 37 -70 37 -39 0 -49 -9 -286 -237z"/>
<path d="M3242 7435 c-64 -28 -63 -12 -60 -754 2 -516 6 -671 15 -683 11 -12 10 -21 -3 -47 -31 -62 1 -157 58 -172 69 -18 41 -42 654 563 139 136 256 248 262 248 19 0 54 69 48 95 -9 35 -52 82 -82 88 -62 11 -83 -5 -420 -337 -181 -179 -347 -342 -369 -364 -50 -48 -104 -86 -112 -78 -6 5 3 40 27 116 5 14 11 51 15 83 4 31 10 57 15 57 9 0 34 -39 46 -72 14 -39 32 -18 39 45 9 89 2 864 -9 874 -4 4 -13 0 -20 -11 -6 -10 -22 -32 -35 -48 -22 -27 -25 -29 -32 -12 -3 11 -8 64 -10 119 l-4 100 29 5 c40 7 42 22 5 42 -32 19 -31 38 1 38 21 0 88 -56 101 -85 5 -11 14 -27 21 -37 10 -13 6 -23 -21 -54 -31 -34 -32 -38 -15 -45 11 -4 30 -19 44 -34 44 -48 72 -57 118 -38 23 8 44 23 47 32 21 49 22 68 6 97 -22 41 -251 261 -285 274 -34 12 -34 12 -74 -5z m45 -877 c-2 -13 -4 -5 -4 17 -1 22 1 32 4 23 2 -10 2 -28 0 -40z m128 -538 c-10 -11 -24 -20 -32 -20 -7 0 -13 9 -13 20 0 16 7 20 32 20 30 0 31 0 13 -20z m-65 -34 c0 -15 -18 -31 -26 -23 -7 7 7 37 17 37 5 0 9 -6 9 -14z"/>
<path d="M7875 7324 c-131 -51 -187 -96 -230 -180 -27 -52 -30 -69 -30 -149 0 -80 3 -97 30 -149 63 -126 151 -168 470 -226 91 -17 164 -51 212 -100 58 -60 67 -232 15 -295 -30 -35 -96 -81 -142 -98 -64 -24 -291 -24 -364 -1 -82 27 -130 47 -148 62 -9 8 -31 15 -48 15 -30 2 -32 -1 -52 -56 -19 -56 -19 -59 -2 -78 9 -10 26 -19 37 -19 10 0 31 -6 45 -14 94 -48 305 -75 453 -57 138 17 216 51 294 126 64 62 84 101 100 190 24 134 -9 252 -97 337 -50 49 -161 108 -202 108 -14 0 -37 5 -52 10 -15 6 -52 15 -83 20 -239 39 -331 104 -331 230 0 84 77 183 151 195 21 4 41 11 45 16 22 36 356 -26 384 -71 3 -5 17 -11 31 -15 24 -6 30 -1 58 44 17 28 31 56 31 61 0 15 -110 62 -210 90 -72 20 -316 23 -365 4z"/>
<path d="M2720 7315 c0 -3 -1 -301 -1 -662 l0 -658 73 0 73 0 0 660 0 660 -72 3 c-40 2 -73 0 -73 -3z"/>
<path d="M4933 7312 c-5 -1 -7 -297 -6 -658 l2 -656 425 -1 426 -2 0 71 0 72 -352 -2 -353 -1 3 180 c2 99 -1 205 -7 235 -5 30 -6 59 -1 64 4 4 146 7 314 7 l306 -2 0 60 c0 33 -5 63 -11 67 -9 5 -284 5 -559 0 l-45 -1 0 223 0 223 333 -2 c183 -1 336 1 340 5 10 11 10 106 0 112 -9 6 -800 12 -815 6z"/>
<path d="M6202 7308 c-4 -4 -6 -302 -4 -662 l2 -656 76 0 75 0 -1 283 c0 155 -1 289 0 297 0 14 23 16 174 14 95 0 178 -4 183 -7 6 -4 18 -21 27 -39 9 -18 39 -67 66 -108 28 -41 54 -84 60 -95 6 -11 32 -54 60 -95 27 -41 70 -109 95 -152 25 -42 52 -81 59 -88 18 -14 178 -9 183 6 2 6 -19 38 -47 70 -27 33 -50 63 -50 68 0 4 -13 25 -30 46 -16 21 -30 40 -30 43 0 10 -192 292 -216 318 -26 28 -32 69 -10 69 41 0 134 48 182 95 72 69 104 142 104 237 0 106 -22 160 -96 233 -62 62 -93 80 -179 108 -41 13 -108 17 -363 19 -172 2 -316 0 -320 -4z m593 -129 c22 -6 51 -13 65 -16 43 -10 99 -52 125 -93 21 -33 25 -52 25 -115 0 -85 -22 -132 -83 -179 -68 -52 -135 -64 -361 -67 -114 -1 -209 1 -212 4 -5 4 -6 209 -4 470 0 11 400 8 445 -4z"/>
<path d="M8955 7314 c-7 -3 -9 -231 -8 -662 l2 -657 76 0 76 0 2 657 c2 540 0 659 -11 663 -16 6 -122 5 -137 -1z"/>
<path d="M10059 7312 c-8 -1 -22 -24 -32 -50 -11 -26 -25 -60 -32 -77 -26 -60 -48 -111 -63 -145 -8 -19 -21 -50 -29 -67 -7 -18 -20 -47 -27 -65 -14 -33 -22 -51 -69 -158 -14 -30 -41 -95 -62 -145 -20 -49 -40 -97 -45 -106 -4 -8 -34 -76 -65 -149 -31 -73 -60 -141 -65 -149 -60 -123 -90 -188 -90 -199 0 -8 21 -12 69 -12 78 0 101 6 101 26 0 13 20 66 46 117 8 16 14 35 14 42 0 7 6 26 14 42 34 70 74 171 78 198 3 19 12 20 328 23 l325 2 18 -47 c10 -27 25 -61 32 -76 8 -16 15 -36 15 -46 0 -9 4 -21 9 -26 5 -6 25 -50 46 -100 20 -49 43 -105 51 -122 l14 -33 74 0 c41 0 78 4 81 10 3 5 0 21 -7 34 -40 76 -118 244 -118 255 0 5 -6 22 -14 38 -44 88 -395 908 -408 951 -5 17 -14 32 -21 33 -46 3 -156 4 -168 1z m99 -154 c5 -7 19 -40 30 -73 19 -58 49 -138 77 -200 7 -16 29 -70 50 -119 20 -48 47 -108 61 -131 13 -24 24 -50 24 -57 0 -10 -52 -13 -260 -12 -143 0 -263 3 -266 7 -4 3 13 46 36 94 51 107 60 126 100 228 18 44 36 88 42 99 5 10 20 50 32 88 27 81 50 105 74 76z"/>
</g>
</svg>